<svg xmlns="http://www.w3.org/2000/svg" xmlns:xlink="http://www.w3.org/1999/xlink" width="1024" zoomAndPan="magnify" viewBox="0 0 768 428.99999" height="572" preserveAspectRatio="xMidYMid meet" version="1.0"><defs><filter x="0%" y="0%" width="100%" height="100%" id="14b56df9b3"><feColorMatrix values="0 0 0 0 1 0 0 0 0 1 0 0 0 0 1 0 0 0 1 0" color-interpolation-filters="sRGB"/></filter><mask id="ca48396cde"><g filter="url(#14b56df9b3)"><rect x="-168.96" width="1105.92" fill="#000000" y="-94.379998" height="617.759986" fill-opacity="0.49"/></g></mask><clipPath id="4925c8e479"><path d="M 5.9375 6.148438 L 340 6.148438 L 340 340.210938 L 5.9375 340.210938 Z M 5.9375 6.148438 " clip-rule="nonzero"/></clipPath><clipPath id="4ed4de9daa"><path d="M 172.96875 6.148438 C 80.71875 6.148438 5.9375 80.929688 5.9375 173.179688 C 5.9375 265.429688 80.71875 340.210938 172.96875 340.210938 C 265.21875 340.210938 340 265.429688 340 173.179688 C 340 80.929688 265.21875 6.148438 172.96875 6.148438 Z M 172.96875 6.148438 " clip-rule="nonzero"/></clipPath><clipPath id="1abfbd34f3"><rect x="0" width="340" y="0" height="346"/></clipPath><mask id="da07112ee3"><g filter="url(#14b56df9b3)"><rect x="-168.96" width="1105.92" fill="#000000" y="-94.379998" height="617.759986" fill-opacity="0.49"/></g></mask><clipPath id="fef298c750"><path d="M 5.796875 6.148438 L 339.863281 6.148438 L 339.863281 340.210938 L 5.796875 340.210938 Z M 5.796875 6.148438 " clip-rule="nonzero"/></clipPath><clipPath id="c8e93cf9d8"><path d="M 172.832031 6.148438 C 80.582031 6.148438 5.796875 80.929688 5.796875 173.179688 C 5.796875 265.429688 80.582031 340.210938 172.832031 340.210938 C 265.078125 340.210938 339.863281 265.429688 339.863281 173.179688 C 339.863281 80.929688 265.078125 6.148438 172.832031 6.148438 Z M 172.832031 6.148438 " clip-rule="nonzero"/></clipPath><clipPath id="1f257cd162"><rect x="0" width="346" y="0" height="346"/></clipPath><mask id="4a9cce714a"><g filter="url(#14b56df9b3)"><rect x="-168.96" width="1105.92" fill="#000000" y="-94.379998" height="617.759986" fill-opacity="0.49"/></g></mask><clipPath id="5b21f3e1cc"><path d="M 5.796875 0 L 339.863281 0 L 339.863281 251.179688 L 5.796875 251.179688 Z M 5.796875 0 " clip-rule="nonzero"/></clipPath><clipPath id="9bae47db16"><path d="M 172.832031 -82.882812 C 80.582031 -82.882812 5.796875 -8.101562 5.796875 84.148438 C 5.796875 176.398438 80.582031 251.179688 172.832031 251.179688 C 265.078125 251.179688 339.863281 176.398438 339.863281 84.148438 C 339.863281 -8.101562 265.078125 -82.882812 172.832031 -82.882812 Z M 172.832031 -82.882812 " clip-rule="nonzero"/></clipPath><clipPath id="e1f40a3dce"><rect x="0" width="346" y="0" height="257"/></clipPath><mask id="fd0b98d32c"><g filter="url(#14b56df9b3)"><rect x="-168.96" width="1105.92" fill="#000000" y="-94.379998" height="617.759986" fill-opacity="0.49"/></g></mask><clipPath id="5d60a3b2e3"><path d="M 5.796875 6.179688 L 339.863281 6.179688 L 339.863281 184 L 5.796875 184 Z M 5.796875 6.179688 " clip-rule="nonzero"/></clipPath><clipPath id="d5b338546b"><path d="M 172.832031 6.179688 C 80.582031 6.179688 5.796875 80.964844 5.796875 173.210938 C 5.796875 265.460938 80.582031 340.242188 172.832031 340.242188 C 265.078125 340.242188 339.863281 265.460938 339.863281 173.210938 C 339.863281 80.964844 265.078125 6.179688 172.832031 6.179688 Z M 172.832031 6.179688 " clip-rule="nonzero"/></clipPath><clipPath id="bf32654ccf"><rect x="0" width="346" y="0" height="184"/></clipPath><mask id="ca7376e7be"><g filter="url(#14b56df9b3)"><rect x="-168.96" width="1105.92" fill="#000000" y="-94.379998" height="617.759986" fill-opacity="0.49"/></g></mask><clipPath id="5d1337bc58"><path d="M 5.832031 6.140625 L 169.90625 6.140625 L 169.90625 170.214844 L 5.832031 170.214844 Z M 5.832031 6.140625 " clip-rule="nonzero"/></clipPath><clipPath id="91bdf64797"><path d="M 87.867188 6.140625 C 42.558594 6.140625 5.832031 42.867188 5.832031 88.175781 C 5.832031 133.484375 42.558594 170.214844 87.867188 170.214844 C 133.175781 170.214844 169.90625 133.484375 169.90625 88.175781 C 169.90625 42.867188 133.175781 6.140625 87.867188 6.140625 Z M 87.867188 6.140625 " clip-rule="nonzero"/></clipPath><clipPath id="793fe2f1c5"><rect x="0" width="176" y="0" height="176"/></clipPath><mask id="8d4507c530"><g filter="url(#14b56df9b3)"><rect x="-168.96" width="1105.92" fill="#000000" y="-94.379998" height="617.759986" fill-opacity="0.49"/></g></mask><clipPath id="cd11ea8233"><path d="M 6.3125 6.148438 L 173.347656 6.148438 L 173.347656 173.179688 L 6.3125 173.179688 Z M 6.3125 6.148438 " clip-rule="nonzero"/></clipPath><clipPath id="f796d3e42b"><path d="M 89.832031 6.148438 C 43.707031 6.148438 6.3125 43.539062 6.3125 89.664062 C 6.3125 135.789062 43.707031 173.179688 89.832031 173.179688 C 135.953125 173.179688 173.347656 135.789062 173.347656 89.664062 C 173.347656 43.539062 135.953125 6.148438 89.832031 6.148438 Z M 89.832031 6.148438 " clip-rule="nonzero"/></clipPath><clipPath id="fd443cd6ac"><rect x="0" width="179" y="0" height="179"/></clipPath><mask id="67aa491c1d"><g filter="url(#14b56df9b3)"><rect x="-168.96" width="1105.92" fill="#000000" y="-94.379998" height="617.759986" fill-opacity="0.49"/></g></mask><clipPath id="c6e0e41419"><path d="M 6.3125 6.230469 L 173.347656 6.230469 L 173.347656 173.261719 L 6.3125 173.261719 Z M 6.3125 6.230469 " clip-rule="nonzero"/></clipPath><clipPath id="b1d843c45e"><path d="M 89.832031 6.230469 C 43.707031 6.230469 6.3125 43.621094 6.3125 89.746094 C 6.3125 135.871094 43.707031 173.261719 89.832031 173.261719 C 135.953125 173.261719 173.347656 135.871094 173.347656 89.746094 C 173.347656 43.621094 135.953125 6.230469 89.832031 6.230469 Z M 89.832031 6.230469 " clip-rule="nonzero"/></clipPath><clipPath id="572ecc4e30"><rect x="0" width="179" y="0" height="179"/></clipPath><mask id="ef1b59f34b"><g filter="url(#14b56df9b3)"><rect x="-168.96" width="1105.92" fill="#000000" y="-94.379998" height="617.759986" fill-opacity="0.49"/></g></mask><clipPath id="3cd6de7a3d"><path d="M 0 6.148438 L 334.0625 6.148438 L 334.0625 340.210938 L 0 340.210938 Z M 0 6.148438 " clip-rule="nonzero"/></clipPath><clipPath id="b78e215e79"><path d="M 167.03125 6.148438 C 74.78125 6.148438 0 80.929688 0 173.179688 C 0 265.429688 74.78125 340.210938 167.03125 340.210938 C 259.28125 340.210938 334.0625 265.429688 334.0625 173.179688 C 334.0625 80.929688 259.28125 6.148438 167.03125 6.148438 Z M 167.03125 6.148438 " clip-rule="nonzero"/></clipPath><clipPath id="966b68f4ec"><rect x="0" width="340" y="0" height="346"/></clipPath><mask id="86e4fc0cb8"><g filter="url(#14b56df9b3)"><rect x="-168.96" width="1105.92" fill="#000000" y="-94.379998" height="617.759986" fill-opacity="0.49"/></g></mask><clipPath id="09f5da07b4"><path d="M 5.273438 6.140625 L 169.347656 6.140625 L 169.347656 170.214844 L 5.273438 170.214844 Z M 5.273438 6.140625 " clip-rule="nonzero"/></clipPath><clipPath id="5f8380548d"><path d="M 87.3125 6.140625 C 42.003906 6.140625 5.273438 42.867188 5.273438 88.175781 C 5.273438 133.484375 42.003906 170.214844 87.3125 170.214844 C 132.617188 170.214844 169.347656 133.484375 169.347656 88.175781 C 169.347656 42.867188 132.617188 6.140625 87.3125 6.140625 Z M 87.3125 6.140625 " clip-rule="nonzero"/></clipPath><clipPath id="c657febf14"><rect x="0" width="175" y="0" height="176"/></clipPath><clipPath id="3be2de07fd"><rect x="0" width="768" y="0" height="429"/></clipPath></defs><rect x="-76.8" width="921.6" fill="#ffffff" y="-42.899999" height="514.799988" fill-opacity="1"/><rect x="-76.8" width="921.6" fill="#ecede8" y="-42.899999" height="514.799988" fill-opacity="1"/><g transform="matrix(1, 0, 0, 1, -0, 0)"><g clip-path="url(#3be2de07fd)"><g mask="url(#ca48396cde)"><g transform="matrix(1, 0, 0, 1, 428, 78)"><g clip-path="url(#1abfbd34f3)"><g clip-path="url(#4925c8e479)"><g clip-path="url(#4ed4de9daa)"><path stroke-linecap="butt" transform="matrix(0.584027, 0, 0, 0.584027, 5.936563, 6.148859)" fill="none" stroke-linejoin="miter" d="M 286.000889 -0.000722282 C 128.045812 -0.000722282 0.00160466 128.043485 0.00160466 285.998563 C 0.00160466 443.95364 128.045812 571.997847 286.000889 571.997847 C 443.955967 571.997847 572.000174 443.95364 572.000174 285.998563 C 572.000174 128.043485 443.955967 -0.000722282 286.000889 -0.000722282 Z M 286.000889 -0.000722282 " stroke="#c1c1c1" stroke-width="2.568375" stroke-opacity="1" stroke-miterlimit="4"/></g></g></g></g></g><g mask="url(#da07112ee3)"><g transform="matrix(1, 0, 0, 1, 211, 78)"><g clip-path="url(#1f257cd162)"><g clip-path="url(#fef298c750)"><g clip-path="url(#c8e93cf9d8)"><path stroke-linecap="butt" transform="matrix(0.584027, 0, 0, 0.584027, 5.798466, 6.148859)" fill="none" stroke-linejoin="miter" d="M 286.003248 -0.000722282 C 128.048171 -0.000722282 -0.00272498 128.043485 -0.00272498 285.998563 C -0.00272498 443.95364 128.048171 571.997847 286.003248 571.997847 C 443.951637 571.997847 572.002533 443.95364 572.002533 285.998563 C 572.002533 128.043485 443.951637 -0.000722282 286.003248 -0.000722282 Z M 286.003248 -0.000722282 " stroke="#c1c1c1" stroke-width="2.568375" stroke-opacity="1" stroke-miterlimit="4"/></g></g></g></g></g><g mask="url(#4a9cce714a)"><g transform="matrix(1, 0, 0, 1, 211, 0)"><g clip-path="url(#e1f40a3dce)"><g clip-path="url(#5b21f3e1cc)"><g clip-path="url(#9bae47db16)"><path stroke-linecap="butt" transform="matrix(0.584027, 0, 0, 0.584027, 5.798466, -82.882795)" fill="none" stroke-linejoin="miter" d="M 286.003248 -0.0000306244 C 128.048171 -0.0000306244 -0.00272498 128.044177 -0.00272498 285.999254 C -0.00272498 443.954332 128.048171 571.998539 286.003248 571.998539 C 443.951637 571.998539 572.002533 443.954332 572.002533 285.999254 C 572.002533 128.044177 443.951637 -0.0000306244 286.003248 -0.0000306244 Z M 286.003248 -0.0000306244 " stroke="#c1c1c1" stroke-width="2.568375" stroke-opacity="1" stroke-miterlimit="4"/></g></g></g></g></g><g mask="url(#fd0b98d32c)"><g transform="matrix(1, 0, 0, 1, 211, 245)"><g clip-path="url(#bf32654ccf)"><g clip-path="url(#5d60a3b2e3)"><g clip-path="url(#d5b338546b)"><path stroke-linecap="butt" transform="matrix(0.584027, 0, 0, 0.584027, 5.798466, 6.180521)" fill="none" stroke-linejoin="miter" d="M 286.003248 -0.00142668 C 128.048171 -0.00142668 -0.00272498 128.049469 -0.00272498 285.997858 C -0.00272498 443.952936 128.048171 571.997143 286.003248 571.997143 C 443.951637 571.997143 572.002533 443.952936 572.002533 285.997858 C 572.002533 128.049469 443.951637 -0.00142668 286.003248 -0.00142668 Z M 286.003248 -0.00142668 " stroke="#c1c1c1" stroke-width="2.568375" stroke-opacity="1" stroke-miterlimit="4"/></g></g></g></g></g><g mask="url(#ca7376e7be)"><g transform="matrix(1, 0, 0, 1, 378, 163)"><g clip-path="url(#793fe2f1c5)"><g clip-path="url(#5d1337bc58)"><g clip-path="url(#91bdf64797)"><path stroke-linecap="butt" transform="matrix(0.584027, 0, 0, 0.584027, 5.83015, 6.139418)" fill="none" stroke-linejoin="miter" d="M 140.467942 0.00206701 C 62.888289 0.00206701 0.00322129 62.887135 0.00322129 140.466788 C 0.00322129 218.046441 62.888289 280.938198 140.467942 280.938198 C 218.047596 280.938198 280.939352 218.046441 280.939352 140.466788 C 280.939352 62.887135 218.047596 0.00206701 140.467942 0.00206701 Z M 140.467942 0.00206701 " stroke="#c1c1c1" stroke-width="2.568375" stroke-opacity="1" stroke-miterlimit="4"/></g></g></g></g></g><g mask="url(#8d4507c530)"><g transform="matrix(1, 0, 0, 1, 294, 78)"><g clip-path="url(#fd443cd6ac)"><g clip-path="url(#cd11ea8233)"><g clip-path="url(#f796d3e42b)"><path stroke-linecap="butt" transform="matrix(0.584027, 0, 0, 0.584027, 6.314345, 6.148859)" fill="none" stroke-linejoin="miter" d="M 143.003172 -0.000722282 C 64.025633 -0.000722282 -0.00315876 64.021381 -0.00315876 142.99892 C -0.00315876 221.976459 64.025633 285.998563 143.003172 285.998563 C 221.974022 285.998563 286.002815 221.976459 286.002815 142.99892 C 286.002815 64.021381 221.974022 -0.000722282 143.003172 -0.000722282 Z M 143.003172 -0.000722282 " stroke="#c1c1c1" stroke-width="2.568375" stroke-opacity="1" stroke-miterlimit="4"/></g></g></g></g></g><g mask="url(#67aa491c1d)"><g transform="matrix(1, 0, 0, 1, 294, 242)"><g clip-path="url(#572ecc4e30)"><g clip-path="url(#c6e0e41419)"><g clip-path="url(#b1d843c45e)"><path stroke-linecap="butt" transform="matrix(0.584027, 0, 0, 0.584027, 6.314345, 6.231117)" fill="none" stroke-linejoin="miter" d="M 143.003172 -0.00110954 C 64.025633 -0.00110954 -0.00315876 64.020994 -0.00315876 142.998533 C -0.00315876 221.976072 64.025633 285.998175 143.003172 285.998175 C 221.974022 285.998175 286.002815 221.976072 286.002815 142.998533 C 286.002815 64.020994 221.974022 -0.00110954 143.003172 -0.00110954 Z M 143.003172 -0.00110954 " stroke="#c1c1c1" stroke-width="2.568375" stroke-opacity="1" stroke-miterlimit="4"/></g></g></g></g></g><g mask="url(#ef1b59f34b)"><g transform="matrix(1, 0, 0, 1, -0, 78)"><g clip-path="url(#966b68f4ec)"><g clip-path="url(#3cd6de7a3d)"><g clip-path="url(#b78e215e79)"><path stroke-linecap="butt" transform="matrix(0.584027, 0, 0, 0.584027, 0.00000895105, 6.148859)" fill="none" stroke-linejoin="miter" d="M 285.99927 -0.000722282 C 128.044192 -0.000722282 -0.0000153264 128.043485 -0.0000153264 285.998563 C -0.0000153264 443.95364 128.044192 571.997847 285.99927 571.997847 C 443.954347 571.997847 571.998554 443.95364 571.998554 285.998563 C 571.998554 128.043485 443.954347 -0.000722282 285.99927 -0.000722282 Z M 285.99927 -0.000722282 " stroke="#c1c1c1" stroke-width="2.568375" stroke-opacity="1" stroke-miterlimit="4"/></g></g></g></g></g><g mask="url(#86e4fc0cb8)"><g transform="matrix(1, 0, 0, 1, 213, 163)"><g clip-path="url(#c657febf14)"><g clip-path="url(#09f5da07b4)"><g clip-path="url(#5f8380548d)"><path stroke-linecap="butt" transform="matrix(0.584027, 0, 0, 0.584027, 5.273183, 6.139418)" fill="none" stroke-linejoin="miter" d="M 140.471845 0.00206701 C 62.892191 0.00206701 0.000435205 62.887135 0.000435205 140.466788 C 0.000435205 218.046441 62.892191 280.938198 140.471845 280.938198 C 218.04481 280.938198 280.936566 218.046441 280.936566 140.466788 C 280.936566 62.887135 218.04481 0.00206701 140.471845 0.00206701 Z M 140.471845 0.00206701 " stroke="#c1c1c1" stroke-width="2.568375" stroke-opacity="1" stroke-miterlimit="4"/></g></g></g></g></g></g></g></svg>