<svg xmlns="http://www.w3.org/2000/svg" xmlns:xlink="http://www.w3.org/1999/xlink" width="1024" zoomAndPan="magnify" viewBox="0 0 768 428.99999" height="572" preserveAspectRatio="xMidYMid meet" version="1.0"><defs><filter x="0%" y="0%" width="100%" height="100%" id="3a7ad90fa6"><feColorMatrix values="0 0 0 0 1 0 0 0 0 1 0 0 0 0 1 0 0 0 1 0" color-interpolation-filters="sRGB"/></filter><mask id="c7caa3f045"><g filter="url(#3a7ad90fa6)"><rect x="-76.8" width="921.6" fill="#000000" y="-42.899999" height="514.799988" fill-opacity="0.49"/></g></mask><clipPath id="976e917528"><path d="M 0 0 L 429 0 L 429 429 L 0 429 Z M 0 0 " clip-rule="nonzero"/></clipPath><clipPath id="81379e0adf"><path d="M 214.5 0 C 96.035156 0 0 96.035156 0 214.5 C 0 332.964844 96.035156 429 214.5 429 C 332.964844 429 429 332.964844 429 214.5 C 429 96.035156 332.964844 0 214.5 0 Z M 214.5 0 " clip-rule="nonzero"/></clipPath><clipPath id="0945d72c64"><rect x="0" width="436" y="0" height="429"/></clipPath><mask id="0a072deeae"><g filter="url(#3a7ad90fa6)"><rect x="-76.8" width="921.6" fill="#000000" y="-42.899999" height="514.799988" fill-opacity="0.49"/></g></mask><clipPath id="76d538fa01"><path d="M 0 0 L 214.5 0 L 214.5 429 L 0 429 Z M 0 0 " clip-rule="nonzero"/></clipPath><clipPath id="f05b9c9193"><path d="M 0 0 C -118.464844 0 -214.5 96.035156 -214.5 214.5 C -214.5 332.964844 -118.464844 429 0 429 C 118.464844 429 214.5 332.964844 214.5 214.5 C 214.5 96.035156 118.464844 0 0 0 Z M 0 0 " clip-rule="nonzero"/></clipPath><clipPath id="a5e1f6eccf"><rect x="0" width="222" y="0" height="429"/></clipPath><mask id="572571df52"><g filter="url(#3a7ad90fa6)"><rect x="-76.8" width="921.6" fill="#000000" y="-42.899999" height="514.799988" fill-opacity="0.49"/></g></mask><clipPath id="792236bcc7"><path d="M 0 0 L 214.5 0 L 214.5 214.5 L 0 214.5 Z M 0 0 " clip-rule="nonzero"/></clipPath><clipPath id="77f26c1a52"><path d="M 0 -214.5 C -118.464844 -214.5 -214.5 -118.464844 -214.5 0 C -214.5 118.464844 -118.464844 214.5 0 214.5 C 118.464844 214.5 214.5 118.464844 214.5 0 C 214.5 -118.464844 118.464844 -214.5 0 -214.5 Z M 0 -214.5 " clip-rule="nonzero"/></clipPath><clipPath id="e49ab6bdbf"><rect x="0" width="222" y="0" height="222"/></clipPath><mask id="1b546f2c7b"><g filter="url(#3a7ad90fa6)"><rect x="-76.8" width="921.6" fill="#000000" y="-42.899999" height="514.799988" fill-opacity="0.49"/></g></mask><clipPath id="c5d7ed027e"><path d="M 0 7.5 L 214.5 7.5 L 214.5 222 L 0 222 Z M 0 7.5 " clip-rule="nonzero"/></clipPath><clipPath id="befa289ae6"><path d="M 0 7.5 C -118.464844 7.5 -214.5 103.535156 -214.5 222 C -214.5 340.464844 -118.464844 436.5 0 436.5 C 118.464844 436.5 214.5 340.464844 214.5 222 C 214.5 103.535156 118.464844 7.5 0 7.5 Z M 0 7.5 " clip-rule="nonzero"/></clipPath><clipPath id="3e559c8b63"><rect x="0" width="222" y="0" height="222"/></clipPath><mask id="23add38528"><g filter="url(#3a7ad90fa6)"><rect x="-76.8" width="921.6" fill="#000000" y="-42.899999" height="514.799988" fill-opacity="0.49"/></g></mask><clipPath id="8836da5279"><path d="M 0 4.144531 L 210.703125 4.144531 L 210.703125 214.847656 L 0 214.847656 Z M 0 4.144531 " clip-rule="nonzero"/></clipPath><clipPath id="c430a4b932"><path d="M 105.351562 4.144531 C 47.167969 4.144531 0 51.3125 0 109.496094 C 0 167.679688 47.167969 214.847656 105.351562 214.847656 C 163.535156 214.847656 210.703125 167.679688 210.703125 109.496094 C 210.703125 51.3125 163.535156 4.144531 105.351562 4.144531 Z M 105.351562 4.144531 " clip-rule="nonzero"/></clipPath><clipPath id="1ab38ee84c"><rect x="0" width="215" y="0" height="219"/></clipPath><mask id="0618e0699c"><g filter="url(#3a7ad90fa6)"><rect x="-76.8" width="921.6" fill="#000000" y="-42.899999" height="514.799988" fill-opacity="0.49"/></g></mask><clipPath id="f3678cfd84"><path d="M 0 0 L 107.25 0 L 107.25 214.5 L 0 214.5 Z M 0 0 " clip-rule="nonzero"/></clipPath><clipPath id="705503f1ae"><path d="M 0 0 C -59.234375 0 -107.25 48.015625 -107.25 107.25 C -107.25 166.484375 -59.234375 214.5 0 214.5 C 59.234375 214.5 107.25 166.484375 107.25 107.25 C 107.25 48.015625 59.234375 0 0 0 Z M 0 0 " clip-rule="nonzero"/></clipPath><clipPath id="46267d595b"><rect x="0" width="111" y="0" height="218"/></clipPath><mask id="a9bcdf8e34"><g filter="url(#3a7ad90fa6)"><rect x="-76.8" width="921.6" fill="#000000" y="-42.899999" height="514.799988" fill-opacity="0.49"/></g></mask><clipPath id="6774b9bdf9"><path d="M 0 3.710938 L 107.25 3.710938 L 107.25 218.210938 L 0 218.210938 Z M 0 3.710938 " clip-rule="nonzero"/></clipPath><clipPath id="bd30ecba08"><path d="M 0 3.710938 C -59.234375 3.710938 -107.25 51.730469 -107.25 110.960938 C -107.25 170.195312 -59.234375 218.210938 0 218.210938 C 59.234375 218.210938 107.25 170.195312 107.25 110.960938 C 107.25 51.730469 59.234375 3.710938 0 3.710938 Z M 0 3.710938 " clip-rule="nonzero"/></clipPath><clipPath id="978e33f3cd"><rect x="0" width="111" y="0" height="222"/></clipPath></defs><rect x="-76.8" width="921.6" fill="#ffffff" y="-42.899999" height="514.799988" fill-opacity="1"/><rect x="-76.8" width="921.6" fill="#ecede8" y="-42.899999" height="514.799988" fill-opacity="1"/><g mask="url(#c7caa3f045)"><g transform="matrix(1, 0, 0, 1, -0, 0)"><g clip-path="url(#0945d72c64)"><g clip-path="url(#976e917528)"><g clip-path="url(#81379e0adf)"><path stroke-linecap="butt" transform="matrix(0.75, 0, 0, 0.75, 0.00000895105, -0.000000000000042633)" fill="none" stroke-linejoin="miter" d="M 286.000007 0.000000000000056843 C 128.046871 0.000000000000056843 -0.0000119347 128.046883 -0.0000119347 286.000019 C -0.0000119347 443.953154 128.046871 572.000037 286.000007 572.000037 C 443.953142 572.000037 572.000025 443.953154 572.000025 286.000019 C 572.000025 128.046883 443.953142 0.000000000000056843 286.000007 0.000000000000056843 Z M 286.000007 0.000000000000056843 " stroke="#c1c1c1" stroke-width="2" stroke-opacity="1" stroke-miterlimit="4"/></g></g></g></g></g><g mask="url(#0a072deeae)"><g transform="matrix(1, 0, 0, 1, -0, 0)"><g clip-path="url(#a5e1f6eccf)"><g clip-path="url(#76d538fa01)"><g clip-path="url(#f05b9c9193)"><path stroke-linecap="butt" transform="matrix(0.75, 0, 0, 0.75, -214.499977, 0)" fill="none" stroke-linejoin="miter" d="M 285.999988 0 C 128.046853 0 -0.0000305181 128.046883 -0.0000305181 286.000019 C -0.0000305181 443.953154 128.046853 572.000037 285.999988 572.000037 C 443.953123 572.000037 572.000007 443.953154 572.000007 286.000019 C 572.000007 128.046883 443.953123 0 285.999988 0 Z M 285.999988 0 " stroke="#c1c1c1" stroke-width="2" stroke-opacity="1" stroke-miterlimit="4"/></g></g></g></g></g><g mask="url(#572571df52)"><g transform="matrix(1, 0, 0, 1, -0, 0)"><g clip-path="url(#e49ab6bdbf)"><g clip-path="url(#792236bcc7)"><g clip-path="url(#77f26c1a52)"><path stroke-linecap="butt" transform="matrix(0.75, 0, 0, 0.75, -214.499977, -214.499986)" fill="none" stroke-linejoin="miter" d="M 285.999988 -0.0000185833 C 128.046853 -0.0000185833 -0.0000305181 128.046865 -0.0000305181 286 C -0.0000305181 443.953135 128.046853 572.000019 285.999988 572.000019 C 443.953123 572.000019 572.000007 443.953135 572.000007 286 C 572.000007 128.046865 443.953123 -0.0000185833 285.999988 -0.0000185833 Z M 285.999988 -0.0000185833 " stroke="#c1c1c1" stroke-width="2" stroke-opacity="1" stroke-miterlimit="4"/></g></g></g></g></g><g mask="url(#1b546f2c7b)"><g transform="matrix(1, 0, 0, 1, -0, 207)"><g clip-path="url(#3e559c8b63)"><g clip-path="url(#c5d7ed027e)"><g clip-path="url(#befa289ae6)"><path stroke-linecap="butt" transform="matrix(0.75, 0, 0, 0.75, -214.499977, 7.499986)" fill="none" stroke-linejoin="miter" d="M 285.999988 0.0000185833 C 128.046853 0.0000185833 -0.0000305181 128.046902 -0.0000305181 286.000037 C -0.0000305181 443.953172 128.046853 572.000056 285.999988 572.000056 C 443.953123 572.000056 572.000007 443.953172 572.000007 286.000037 C 572.000007 128.046902 443.953123 0.0000185833 285.999988 0.0000185833 Z M 285.999988 0.0000185833 " stroke="#c1c1c1" stroke-width="2" stroke-opacity="1" stroke-miterlimit="4"/></g></g></g></g></g><g mask="url(#23add38528)"><g transform="matrix(1, 0, 0, 1, -0, 105)"><g clip-path="url(#1ab38ee84c)"><g clip-path="url(#8836da5279)"><g clip-path="url(#c430a4b932)"><path stroke-linecap="butt" transform="matrix(0.75, 0, 0, 0.75, 0.00000895105, 4.143809)" fill="none" stroke-linejoin="miter" d="M 140.468747 0.000963218 C 62.890617 0.000963218 -0.0000119347 62.891592 -0.0000119347 140.469722 C -0.0000119347 218.047852 62.890617 280.938481 140.468747 280.938481 C 218.046877 280.938481 280.937506 218.047852 280.937506 140.469722 C 280.937506 62.891592 218.046877 0.000963218 140.468747 0.000963218 Z M 140.468747 0.000963218 " stroke="#c1c1c1" stroke-width="2" stroke-opacity="1" stroke-miterlimit="4"/></g></g></g></g></g><g mask="url(#0618e0699c)"><g transform="matrix(1, 0, 0, 1, -0, 0)"><g clip-path="url(#46267d595b)"><g clip-path="url(#f3678cfd84)"><g clip-path="url(#705503f1ae)"><path stroke-linecap="butt" transform="matrix(0.75, 0, 0, 0.75, -107.249984, 0)" fill="none" stroke-linejoin="miter" d="M 142.999988 0 C 64.020816 0 -0.0000212264 64.020837 -0.0000212264 143.000009 C -0.0000212264 221.979181 64.020816 286.000019 142.999988 286.000019 C 221.97916 286.000019 285.999997 221.979181 285.999997 143.000009 C 285.999997 64.020837 221.97916 0 142.999988 0 Z M 142.999988 0 " stroke="#c1c1c1" stroke-width="2" stroke-opacity="1" stroke-miterlimit="4"/></g></g></g></g></g><g mask="url(#a9bcdf8e34)"><g transform="matrix(1, 0, 0, 1, -0, 207)"><g clip-path="url(#978e33f3cd)"><g clip-path="url(#6774b9bdf9)"><g clip-path="url(#bd30ecba08)"><path stroke-linecap="butt" transform="matrix(0.75, 0, 0, 0.75, -107.249984, 3.712354)" fill="none" stroke-linejoin="miter" d="M 142.999988 -0.0018893 C 64.020816 -0.0018893 -0.0000212264 64.024157 -0.0000212264 142.99812 C -0.0000212264 221.977292 64.020816 285.998129 142.999988 285.998129 C 221.97916 285.998129 285.999997 221.977292 285.999997 142.99812 C 285.999997 64.024157 221.97916 -0.0018893 142.999988 -0.0018893 Z M 142.999988 -0.0018893 " stroke="#c1c1c1" stroke-width="2" stroke-opacity="1" stroke-miterlimit="4"/></g></g></g></g></g></svg>